<svg xmlns="http://www.w3.org/2000/svg" xmlns:xlink="http://www.w3.org/1999/xlink" width="18" height="18" viewBox="0 0 18 18">
    <defs>
        <path id="a" d="M18.503 15.172a.335.335 0 0 0-.12-.456l-1.616-.941.051-.154c.178-.537.27-1.078.27-1.621a5.14 5.14 0 0 0-.27-1.62l-.05-.155.14-.082 1.475-.859a.336.336 0 0 0 .12-.456l-.529-.924a.327.327 0 0 0-.448-.122l-1.612.939-.108-.124a5.07 5.07 0 0 0-2.789-1.627l-.16-.033V5.6a.33.33 0 0 0-.328-.333H11.47a.33.33 0 0 0-.329.333v1.337l-.16.033a5.07 5.07 0 0 0-2.788 1.627l-.109.124-.142-.083-1.47-.855a.327.327 0 0 0-.448.121l-.53.924a.336.336 0 0 0 .122.456l1.615.941-.051.154A5.14 5.14 0 0 0 6.911 12c0 .543.092 1.084.27 1.62l.05.155-.14.082-1.475.86a.335.335 0 0 0-.12.455l.529.924c.09.159.291.213.448.122l1.612-.939.109.124a5.07 5.07 0 0 0 2.788 1.627l.16.033V18.4a.33.33 0 0 0 .329.333h1.058a.33.33 0 0 0 .328-.333v-1.337l.16-.033a5.07 5.07 0 0 0 2.789-1.627l.108-.124.143.083 1.469.855a.326.326 0 0 0 .448-.121l.53-.924zm1.528.27l-1.058 1.848a1.253 1.253 0 0 1-1.719.464l-1.13-.658a6.518 6.518 0 0 1-1.809 1.071v.766c0 .7-.563 1.267-1.258 1.267h-2.115a1.263 1.263 0 0 1-1.258-1.267v-.766a6.518 6.518 0 0 1-1.809-1.07l-1.13.657a1.253 1.253 0 0 1-1.719-.464L3.97 15.442a1.272 1.272 0 0 1 .46-1.729l1.118-.651A6.406 6.406 0 0 1 5.452 12c0-.342.033-.69.095-1.062l-1.119-.651a1.272 1.272 0 0 1-.46-1.73L5.026 6.71a1.253 1.253 0 0 1 1.719-.464l1.13.658a6.528 6.528 0 0 1 1.809-1.071v-.766c0-.7.563-1.267 1.258-1.267h2.115c.695 0 1.258.568 1.258 1.267v.766c.644.247 1.25.61 1.81 1.07l1.13-.657a1.253 1.253 0 0 1 1.718.464l1.058 1.848c.347.605.141 1.38-.46 1.729l-1.118.651c.062.372.094.72.094 1.062 0 .343-.032.69-.094 1.062l1.118.651c.601.35.807 1.124.46 1.73zM12 13.4c.765 0 1.386-.626 1.386-1.4 0-.773-.621-1.4-1.386-1.4-.766 0-1.387.627-1.387 1.4 0 .774.621 1.4 1.387 1.4zm0-4.267c1.571 0 2.844 1.284 2.844 2.867S13.571 14.867 12 14.867c-1.572 0-2.845-1.284-2.845-2.867S10.428 9.133 12 9.133z"/>
    </defs>
    <g fill="none" fill-rule="evenodd" transform="translate(-7 -7)">
        <rect width="32" height="32" opacity=".9" rx="2"/>
        <g transform="translate(4 4)">
            <path d="M0 0h24v24H0z"/>
            <mask id="b" fill="#fff">
                <use xlink:href="#a"/>
            </mask>
            <use fill="#8495A3" fill-rule="nonzero" xlink:href="#a"/>
            <g fill="#B2BDC6" mask="url(#b)">
                <path d="M0 0h24v24H0z"/>
            </g>
        </g>
    </g>
</svg>
